<?xml version="1.0" encoding="utf-8"?>
<!-- Generator: Adobe Illustrator 16.0.0, SVG Export Plug-In . SVG Version: 6.00 Build 0)  -->
<!DOCTYPE svg PUBLIC "-//W3C//DTD SVG 1.1//EN" "http://www.w3.org/Graphics/SVG/1.1/DTD/svg11.dtd">
<svg version="1.1" id="filter_1_" xmlns="http://www.w3.org/2000/svg" xmlns:xlink="http://www.w3.org/1999/xlink" x="0px" y="0px"
	 width="360px" height="360px" viewBox="0 0 360 360" enable-background="new 0 0 360 360" xml:space="preserve">
<g id="filter">
	<g>
		<path fill-rule="evenodd" clip-rule="evenodd" d="M258.85,157.492h-155.7c-14.332,0-25.95,11.628-25.95,25.971
			s11.618,25.97,25.95,25.97h155.7c14.332,0,25.95-11.627,25.95-25.97S273.182,157.492,258.85,157.492z M189.65,244.06h-17.3
			c-14.332,0-25.95,11.627-25.95,25.971c0,14.343,11.618,25.97,25.95,25.97h17.3c14.332,0,25.949-11.627,25.949-25.97
			C215.6,255.687,203.982,244.06,189.65,244.06z M328.05,64H33.95C19.618,64,8,75.627,8,89.97c0,14.344,11.618,25.971,25.95,25.971
			h294.1c14.332,0,25.95-11.627,25.95-25.971C354,75.627,342.382,64,328.05,64z"/>
	</g>
</g>
</svg>
