<?xml version="1.0" encoding="utf-8"?>
<!-- Generator: Adobe Illustrator 16.0.0, SVG Export Plug-In . SVG Version: 6.00 Build 0)  -->
<!DOCTYPE svg PUBLIC "-//W3C//DTD SVG 1.1//EN" "http://www.w3.org/Graphics/SVG/1.1/DTD/svg11.dtd">
<svg version="1.1" id="Layer_1" xmlns="http://www.w3.org/2000/svg" xmlns:xlink="http://www.w3.org/1999/xlink" x="0px" y="0px"
	 width="469px" height="345px" viewBox="0 0 469 345" enable-background="new 0 0 469 345" xml:space="preserve">
<path fill="#424143" d="M440.592,62.823c0,16.691-13.53,30.223-30.223,30.223H57.021c-16.693,0-30.224-13.532-30.224-30.223l0,0
	c0-16.693,13.531-30.224,30.224-30.224h353.348C427.062,32.599,440.592,46.13,440.592,62.823L440.592,62.823z"/>
<path fill="#424143" d="M356.868,173.506c0,16.693-13.53,30.226-30.223,30.226H57.021c-16.693,0-30.224-13.532-30.224-30.226l0,0
	c0-16.694,13.531-30.226,30.224-30.226h269.624C343.338,143.28,356.868,156.812,356.868,173.506L356.868,173.506z"/>
<path fill="#424143" d="M231.281,284.19c0,16.698-13.531,30.229-30.226,30.229H57.021c-16.693,0-30.224-13.53-30.224-30.229l0,0
	c0-16.69,13.531-30.223,30.224-30.223h144.034C217.75,253.968,231.281,267.5,231.281,284.19L231.281,284.19z"/>
</svg>
